<?xml version="1.0" standalone="no"?>
<!DOCTYPE svg PUBLIC "-//W3C//DTD SVG 20010904//EN"
 "http://www.w3.org/TR/2001/REC-SVG-20010904/DTD/svg10.dtd">
<svg version="1.0" xmlns="http://www.w3.org/2000/svg"
 width="460.000000pt" height="166.000000pt" viewBox="0 0 460.000000 166.000000"
 preserveAspectRatio="xMidYMid meet">

<g transform="translate(0.000000,166.000000) scale(0.100000,-0.100000)"
fill="#fff" stroke="none">
<path d="M2573 1438 l-153 -31 0 -52 0 -52 155 31 155 30 0 53 c0 29 -1 52 -2
52 -2 -1 -72 -15 -155 -31z"/>
<path d="M1530 1374 c-63 -13 -125 -26 -137 -29 -20 -5 -23 -12 -23 -55 0 -28
4 -50 9 -50 8 0 235 45 279 55 19 5 22 12 22 55 0 59 10 57 -150 24z"/>
<path d="M930 925 l0 -445 110 0 110 0 0 445 0 445 -110 0 -110 0 0 -445z"/>
<path d="M3207 1363 c-4 -3 -7 -222 -7 -485 l0 -478 510 0 510 0 0 485 0 485
-503 0 c-277 0 -507 -3 -510 -7z m993 -478 l0 -455 -480 0 -480 0 0 455 0 455
480 0 480 0 0 -455z"/>
<path d="M3621 1149 l-93 -100 83 -87 c46 -48 91 -92 100 -99 14 -11 30 1 110
83 52 52 95 96 96 98 1 1 -44 48 -100 104 l-102 102 -94 -101z"/>
<path d="M3334 1165 c3 -33 5 -183 5 -332 l1 -273 90 0 90 0 0 243 0 243 -67
65 c-38 35 -81 76 -96 89 l-28 24 5 -59z"/>
<path d="M4014 1134 l-84 -86 0 -244 0 -244 90 0 90 0 0 330 c0 182 -3 330 -6
330 -4 0 -44 -39 -90 -86z"/>
<path d="M1545 1153 c-16 -2 -60 -8 -97 -14 -77 -12 -74 -6 -62 -127 l7 -60
107 -4 c98 -3 109 -5 142 -30 45 -35 78 -102 87 -179 l7 -59 -208 0 -208 0 0
-100 0 -100 821 0 821 0 -5 233 c-2 138 -9 247 -16 269 -17 55 -67 102 -136
128 -52 20 -78 23 -190 22 -161 0 -263 -23 -282 -62 -6 -14 -21 -72 -33 -130
-21 -101 -23 -195 -4 -243 6 -16 -5 -17 -167 -15 l-174 3 -6 75 c-16 184 -87
310 -206 363 -58 25 -141 38 -198 30z m1117 -223 c63 -18 78 -48 78 -156 l0
-94 -114 0 c-90 0 -115 3 -119 14 -12 30 -17 133 -10 181 7 45 11 50 38 56 47
10 87 10 127 -1z"/>
<path d="M547 1124 c-4 -4 -7 -164 -7 -355 0 -244 -3 -356 -12 -374 -7 -15
-24 -28 -42 -33 l-31 -8 -3 -96 c-3 -112 -1 -115 97 -103 78 10 116 30 150 82
55 83 62 146 59 538 l-3 350 -101 3 c-55 1 -103 0 -107 -4z"/>
</g>
</svg>
