<?xml version="1.0" standalone="no"?>
<!DOCTYPE svg PUBLIC "-//W3C//DTD SVG 20010904//EN"
 "http://www.w3.org/TR/2001/REC-SVG-20010904/DTD/svg10.dtd">
<svg version="1.0" xmlns="http://www.w3.org/2000/svg"
 width="288.000000pt" height="81.000000pt" viewBox="0 0 288.000000 81.000000"
 preserveAspectRatio="xMidYMid meet">

<g transform="translate(0.000000,81.000000) scale(0.100000,-0.100000)"
fill="#fff" stroke="none">
<path d="M60 405 l0 -275 290 0 290 0 0 275 0 275 -290 0 -290 0 0 -275z m569
1 l2 -253 -32 -7 c-40 -8 -466 -8 -496 0 l-23 6 0 254 0 254 274 0 274 0 1
-254z"/>
<path d="M293 548 l-51 -51 -51 42 -51 43 0 -181 0 -181 50 0 50 0 0 137 0
137 53 -52 c29 -29 57 -52 63 -52 5 0 32 23 59 50 l49 50 -54 55 c-30 30 -57
55 -60 55 -3 0 -28 -23 -57 -52z"/>
<path d="M517 542 l-47 -48 0 -137 0 -137 50 0 50 0 0 185 c0 102 -1 185 -3
185 -1 0 -24 -22 -50 -48z"/>
<path d="M1241 662 c-23 -43 27 -91 68 -65 20 13 26 50 11 69 -18 20 -67 18
-79 -4z"/>
<path d="M740 425 l0 -245 65 0 64 0 3 131 3 132 60 -77 c80 -102 93 -102 171
-2 33 41 63 72 68 69 5 -3 6 -53 2 -113 -4 -58 -4 -114 0 -123 5 -14 19 -17
70 -17 l64 0 0 185 0 185 -24 0 c-13 0 -35 9 -50 21 -20 16 -26 29 -26 60 0
25 -5 39 -13 39 -7 0 -48 -47 -91 -105 -43 -58 -81 -105 -85 -105 -4 0 -42 47
-85 105 l-78 105 -59 0 -59 0 0 -245z"/>
<path d="M1960 584 c0 -78 -2 -85 -17 -79 -81 33 -124 30 -173 -12 -88 -74
-76 -257 20 -305 43 -22 101 -23 140 -3 17 9 30 11 30 5 0 -6 26 -10 60 -10
l60 0 0 245 0 245 -60 0 -60 0 0 -86z m-17 -186 c40 -47 10 -128 -47 -128 -53
0 -84 50 -66 105 18 55 75 66 113 23z"/>
<path d="M1445 517 c-73 -24 -75 -27 -58 -68 l14 -36 54 15 c49 14 56 14 79
-2 15 -9 26 -20 26 -25 0 -5 -29 -12 -64 -16 -82 -9 -122 -33 -135 -80 -10
-37 -8 -51 11 -91 21 -44 112 -59 158 -27 17 12 25 13 28 5 2 -7 25 -12 58
-12 l54 0 0 130 c0 71 -5 140 -11 153 -24 53 -133 80 -214 54z m115 -211 c0
-51 -59 -74 -84 -33 -9 15 -7 22 13 38 13 10 34 19 47 19 19 0 24 -5 24 -24z"/>
<path d="M2225 523 c-25 -5 -95 -35 -95 -40 0 -2 7 -19 15 -39 12 -29 18 -33
32 -26 32 17 92 23 113 12 40 -21 23 -37 -52 -48 -94 -14 -123 -40 -123 -112
0 -65 25 -91 94 -98 36 -3 58 0 75 12 15 10 27 12 31 6 3 -6 31 -10 61 -10
l54 0 0 129 c0 117 -2 131 -23 162 -31 46 -109 68 -182 52z m91 -208 c8 -21
-22 -65 -44 -65 -42 0 -57 54 -19 70 34 13 57 12 63 -5z"/>
<path d="M2635 510 c-47 -24 -45 -24 -45 -4 0 12 -10 14 -52 12 l-53 -3 -3
-167 -2 -168 54 0 54 0 4 96 c4 88 6 98 28 116 19 16 34 19 67 14 l42 -5 12
55 c11 47 10 57 -2 65 -23 14 -62 10 -104 -11z"/>
</g>
</svg>
